<mxfile host="app.diagrams.net" agent="Mozilla/5.0 (Macintosh; Intel Mac OS X 10.15; rv:131.0) Gecko/20100101 Firefox/131.0" version="24.7.17">
  <diagram id="prtHgNgQTEPvFCAcTncT" name="Page-1">
    <mxGraphModel dx="1865" dy="1198" grid="1" gridSize="10" guides="1" tooltips="1" connect="1" arrows="1" fold="1" page="1" pageScale="1" pageWidth="1169" pageHeight="827" math="0" shadow="0">
      <root>
        <mxCell id="0" />
        <mxCell id="1" parent="0" />
        <mxCell id="dNxyNK7c78bLwvsdeMH5-19" value="Betalningshantering" style="swimlane;html=1;childLayout=stackLayout;resizeParent=1;resizeParentMax=0;horizontal=0;startSize=20;horizontalStack=0;" parent="1" vertex="1">
          <mxGeometry x="120" y="120" width="930" height="390" as="geometry" />
        </mxCell>
        <mxCell id="dNxyNK7c78bLwvsdeMH5-20" value="Affe ekonomiavdelning" style="swimlane;html=1;startSize=20;horizontal=0;" parent="dNxyNK7c78bLwvsdeMH5-19" vertex="1">
          <mxGeometry x="20" width="910" height="180" as="geometry" />
        </mxCell>
        <mxCell id="DaRO8JVdlsILgHvT_ih7-13" value="" style="edgeStyle=orthogonalEdgeStyle;rounded=0;orthogonalLoop=1;jettySize=auto;html=1;" parent="dNxyNK7c78bLwvsdeMH5-20" source="DaRO8JVdlsILgHvT_ih7-11" target="DaRO8JVdlsILgHvT_ih7-12" edge="1">
          <mxGeometry relative="1" as="geometry" />
        </mxCell>
        <mxCell id="DaRO8JVdlsILgHvT_ih7-11" value="Kopia mottagen" style="rounded=0;whiteSpace=wrap;html=1;" parent="dNxyNK7c78bLwvsdeMH5-20" vertex="1">
          <mxGeometry x="30" y="75" width="105" height="30" as="geometry" />
        </mxCell>
        <mxCell id="DaRO8JVdlsILgHvT_ih7-12" value="Manuell inmatning" style="whiteSpace=wrap;html=1;rounded=0;" parent="dNxyNK7c78bLwvsdeMH5-20" vertex="1">
          <mxGeometry x="160" y="75" width="112.5" height="30" as="geometry" />
        </mxCell>
        <mxCell id="DaRO8JVdlsILgHvT_ih7-21" value="Pengar mottagna" style="rounded=0;whiteSpace=wrap;html=1;" parent="dNxyNK7c78bLwvsdeMH5-20" vertex="1">
          <mxGeometry x="750" y="60" width="120" height="60" as="geometry" />
        </mxCell>
        <mxCell id="DaRO8JVdlsILgHvT_ih7-34" value="" style="edgeStyle=orthogonalEdgeStyle;rounded=0;orthogonalLoop=1;jettySize=auto;html=1;" parent="dNxyNK7c78bLwvsdeMH5-20" source="DaRO8JVdlsILgHvT_ih7-23" target="DaRO8JVdlsILgHvT_ih7-33" edge="1">
          <mxGeometry relative="1" as="geometry" />
        </mxCell>
        <mxCell id="DaRO8JVdlsILgHvT_ih7-23" value="Kunden betalar ej" style="whiteSpace=wrap;html=1;" parent="dNxyNK7c78bLwvsdeMH5-20" vertex="1">
          <mxGeometry x="290" y="75" width="110" height="30" as="geometry" />
        </mxCell>
        <mxCell id="DaRO8JVdlsILgHvT_ih7-36" value="" style="edgeStyle=orthogonalEdgeStyle;rounded=0;orthogonalLoop=1;jettySize=auto;html=1;" parent="dNxyNK7c78bLwvsdeMH5-20" source="DaRO8JVdlsILgHvT_ih7-33" target="DaRO8JVdlsILgHvT_ih7-35" edge="1">
          <mxGeometry relative="1" as="geometry" />
        </mxCell>
        <mxCell id="DaRO8JVdlsILgHvT_ih7-33" value="PÃ¥minnelse skickas" style="whiteSpace=wrap;html=1;" parent="dNxyNK7c78bLwvsdeMH5-20" vertex="1">
          <mxGeometry x="287.5" y="30" width="115" height="20" as="geometry" />
        </mxCell>
        <mxCell id="DaRO8JVdlsILgHvT_ih7-38" value="" style="edgeStyle=orthogonalEdgeStyle;rounded=0;orthogonalLoop=1;jettySize=auto;html=1;" parent="dNxyNK7c78bLwvsdeMH5-20" source="DaRO8JVdlsILgHvT_ih7-35" target="DaRO8JVdlsILgHvT_ih7-37" edge="1">
          <mxGeometry relative="1" as="geometry" />
        </mxCell>
        <mxCell id="DaRO8JVdlsILgHvT_ih7-50" style="edgeStyle=orthogonalEdgeStyle;rounded=0;orthogonalLoop=1;jettySize=auto;html=1;" parent="dNxyNK7c78bLwvsdeMH5-20" source="DaRO8JVdlsILgHvT_ih7-35" edge="1">
          <mxGeometry relative="1" as="geometry">
            <mxPoint x="443.0000000000002" y="249.9999999999999" as="targetPoint" />
          </mxGeometry>
        </mxCell>
        <mxCell id="DaRO8JVdlsILgHvT_ih7-35" value="X" style="rhombus;whiteSpace=wrap;html=1;" parent="dNxyNK7c78bLwvsdeMH5-20" vertex="1">
          <mxGeometry x="430" y="27.5" width="26" height="25" as="geometry" />
        </mxCell>
        <mxCell id="DaRO8JVdlsILgHvT_ih7-52" value="" style="edgeStyle=orthogonalEdgeStyle;rounded=0;orthogonalLoop=1;jettySize=auto;html=1;" parent="dNxyNK7c78bLwvsdeMH5-20" source="DaRO8JVdlsILgHvT_ih7-37" target="DaRO8JVdlsILgHvT_ih7-51" edge="1">
          <mxGeometry relative="1" as="geometry" />
        </mxCell>
        <mxCell id="DaRO8JVdlsILgHvT_ih7-37" value="Kund betalar ej" style="whiteSpace=wrap;html=1;" parent="dNxyNK7c78bLwvsdeMH5-20" vertex="1">
          <mxGeometry x="480" y="30" width="90" height="22.5" as="geometry" />
        </mxCell>
        <mxCell id="DaRO8JVdlsILgHvT_ih7-53" style="edgeStyle=orthogonalEdgeStyle;rounded=0;orthogonalLoop=1;jettySize=auto;html=1;entryX=0;entryY=0.5;entryDx=0;entryDy=0;" parent="dNxyNK7c78bLwvsdeMH5-20" source="DaRO8JVdlsILgHvT_ih7-51" target="DaRO8JVdlsILgHvT_ih7-21" edge="1">
          <mxGeometry relative="1" as="geometry" />
        </mxCell>
        <mxCell id="DaRO8JVdlsILgHvT_ih7-51" value="Inkasso" style="whiteSpace=wrap;html=1;" parent="dNxyNK7c78bLwvsdeMH5-20" vertex="1">
          <mxGeometry x="600" y="31.25" width="55" height="21.25" as="geometry" />
        </mxCell>
        <mxCell id="DaRO8JVdlsILgHvT_ih7-22" style="edgeStyle=orthogonalEdgeStyle;rounded=0;orthogonalLoop=1;jettySize=auto;html=1;entryX=0.75;entryY=1;entryDx=0;entryDy=0;" parent="dNxyNK7c78bLwvsdeMH5-19" source="DaRO8JVdlsILgHvT_ih7-19" target="DaRO8JVdlsILgHvT_ih7-21" edge="1">
          <mxGeometry relative="1" as="geometry" />
        </mxCell>
        <mxCell id="DaRO8JVdlsILgHvT_ih7-24" value="" style="edgeStyle=orthogonalEdgeStyle;rounded=0;orthogonalLoop=1;jettySize=auto;html=1;" parent="dNxyNK7c78bLwvsdeMH5-19" source="DaRO8JVdlsILgHvT_ih7-14" target="DaRO8JVdlsILgHvT_ih7-23" edge="1">
          <mxGeometry relative="1" as="geometry" />
        </mxCell>
        <mxCell id="dNxyNK7c78bLwvsdeMH5-21" value="Kund" style="swimlane;html=1;startSize=20;horizontal=0;" parent="dNxyNK7c78bLwvsdeMH5-19" vertex="1">
          <mxGeometry x="20" y="180" width="910" height="210" as="geometry" />
        </mxCell>
        <mxCell id="DaRO8JVdlsILgHvT_ih7-29" style="edgeStyle=orthogonalEdgeStyle;rounded=0;orthogonalLoop=1;jettySize=auto;html=1;entryX=0.5;entryY=1;entryDx=0;entryDy=0;" parent="dNxyNK7c78bLwvsdeMH5-21" source="DaRO8JVdlsILgHvT_ih7-4" target="DaRO8JVdlsILgHvT_ih7-14" edge="1">
          <mxGeometry relative="1" as="geometry" />
        </mxCell>
        <mxCell id="DaRO8JVdlsILgHvT_ih7-4" value="Faktura mottagen" style="rounded=0;whiteSpace=wrap;html=1;" parent="dNxyNK7c78bLwvsdeMH5-21" vertex="1">
          <mxGeometry x="70" y="160" width="105" height="30" as="geometry" />
        </mxCell>
        <mxCell id="DaRO8JVdlsILgHvT_ih7-20" value="" style="edgeStyle=orthogonalEdgeStyle;rounded=0;orthogonalLoop=1;jettySize=auto;html=1;" parent="dNxyNK7c78bLwvsdeMH5-21" source="DaRO8JVdlsILgHvT_ih7-14" target="DaRO8JVdlsILgHvT_ih7-19" edge="1">
          <mxGeometry relative="1" as="geometry" />
        </mxCell>
        <mxCell id="DaRO8JVdlsILgHvT_ih7-14" value="X" style="rhombus;whiteSpace=wrap;html=1;" parent="dNxyNK7c78bLwvsdeMH5-21" vertex="1">
          <mxGeometry x="332" y="60" width="26" height="25" as="geometry" />
        </mxCell>
        <mxCell id="DaRO8JVdlsILgHvT_ih7-19" value="Kunden betalar" style="whiteSpace=wrap;html=1;" parent="dNxyNK7c78bLwvsdeMH5-21" vertex="1">
          <mxGeometry x="750" y="92.5" width="110" height="25" as="geometry" />
        </mxCell>
        <mxCell id="DaRO8JVdlsILgHvT_ih7-32" style="edgeStyle=orthogonalEdgeStyle;rounded=0;orthogonalLoop=1;jettySize=auto;html=1;entryX=0;entryY=0.5;entryDx=0;entryDy=0;" parent="dNxyNK7c78bLwvsdeMH5-19" source="DaRO8JVdlsILgHvT_ih7-12" target="DaRO8JVdlsILgHvT_ih7-14" edge="1">
          <mxGeometry relative="1" as="geometry">
            <Array as="points">
              <mxPoint x="240" y="253" />
            </Array>
          </mxGeometry>
        </mxCell>
      </root>
    </mxGraphModel>
  </diagram>
</mxfile>
